<svg width="99" height="22" viewBox="0 0 99 22" fill="none" xmlns="http://www.w3.org/2000/svg">
<path fill-rule="evenodd" clip-rule="evenodd" d="M13.8219 15.6814C13.8219 19.1367 11.065 21.6425 6.68591 21.6425C4.14669 21.5723 1.74036 20.4943 0 18.6475L1.46454 17.0308C2.83531 18.3335 4.44818 19.5996 6.65692 19.5996C9.11032 19.5996 11.7555 18.2263 11.7555 15.7605C11.7555 13.7125 10.1247 12.3766 6.69784 11.3232C2.79269 10.132 0.808992 8.5154 0.808992 5.47611C0.808992 2.4683 3.35958 -6.10352e-05 6.99365 -6.10352e-05C9.70791 -6.10352e-05 11.406 1.15456 13.0589 2.62997L11.6191 4.22534C10.1699 2.94393 8.78894 2.0752 7.09424 2.0752C4.99205 2.0752 2.91714 3.42808 2.91714 5.37571C2.91714 7.1404 3.93328 8.2644 7.52047 9.36031C10.8059 10.3702 13.8219 11.935 13.8219 15.6805V15.6814ZM31.5473 1.99279C31.5473 2.94043 32.3167 3.70865 33.2659 3.70865C33.7218 3.70887 34.159 3.52817 34.4813 3.20633C34.8037 2.8845 34.9847 2.44793 34.9845 1.99279C34.9845 1.04515 34.215 0.276934 33.2659 0.276934C32.3167 0.276934 31.5473 1.04515 31.5473 1.99279ZM48.1782 0.628613H46.1066V21.3036H48.1782V0.628613ZM53.0128 20.6154C53.0128 20.6154 54.288 21.6492 58.5367 21.6492L58.5341 21.6484C62.7283 21.6484 66.1322 18.5869 66.1322 14.4041C66.1322 10.2212 62.7308 7.17177 58.5367 7.17177C57.347 7.13997 56.1659 7.38099 55.0842 7.87628V0.628613H53.0128V20.6154ZM68.5508 14.4222C68.5505 18.6069 71.949 21.9995 76.1419 22C80.335 22 83.7344 18.6077 83.7348 14.4228C83.7348 10.2381 80.3359 6.8458 76.143 6.84564C71.9502 6.84549 68.5511 10.2376 68.5508 14.4222ZM96.296 21.31H99L93.0217 14.2027L98.5968 7.53705H95.9082L91.6739 12.5997L87.4184 7.53705H84.7144L90.3296 14.212L84.393 21.31H87.0809L91.6765 15.8151L96.296 21.31ZM76.155 8.8914C73.9189 8.89106 71.9027 10.2353 71.0469 12.2972C70.1909 14.3592 70.6638 16.7327 72.245 18.3109C73.8262 19.8891 76.2042 20.3612 78.27 19.5069C80.3359 18.6526 81.6827 16.6403 81.6823 14.4084C81.6818 11.3616 79.2075 8.89187 76.155 8.8914ZM58.5364 9.24368C57.2994 9.26104 56.0962 9.65011 55.0839 10.3601V18.8936C56.1569 19.4141 57.3456 19.6514 58.5364 19.5829C61.5866 19.5829 64.0604 17.4555 64.0604 14.4133C64.0604 11.3711 61.5841 9.24283 58.5339 9.24283L58.5364 9.24368ZM39.2026 0.628845H41.2741V21.3038H39.2026V0.628845ZM26.4266 21.3054L19.1806 14.073L25.7403 7.52142H28.6694L22.1097 14.073L29.3557 21.3054H26.4266ZM17.1025 0.628613V21.3036H19.174V0.628613H17.1025ZM32.3029 21.3054H34.3744V7.52142H32.3029V21.3054Z" fill="black"/>
</svg>
