<?xml version="1.0" encoding="UTF-8"?> <svg xmlns="http://www.w3.org/2000/svg" width="62" height="44" viewBox="0 0 62 44" fill="none"> <path fill-rule="evenodd" clip-rule="evenodd" d="M21.1593 32.8681C19.2124 39.5166 15.5341 44 11.3172 44C5.06689 44 0 34.1503 0 22C0 9.84974 5.06689 0 11.3172 0C15.5341 0 19.2124 4.48343 21.1593 11.1319C23.1063 4.48343 26.7845 0 31.0014 0C35.2173 0 38.8948 4.48122 40.8421 11.127C42.7894 4.48122 46.4669 0 50.6828 0C56.9331 0 62 9.84974 62 22C62 34.1503 56.9331 44 50.6828 44C46.4669 44 42.7894 39.5188 40.8421 32.873C38.8948 39.5188 35.2173 44 31.0014 44C26.7845 44 23.1063 39.5166 21.1593 32.8681Z" fill="#3933F5"></path> </svg> 